<?xml version="1.0" encoding="UTF-8" standalone="no"?>
<!-- Created with Inkscape (http://www.inkscape.org/) -->
<svg xmlns:dc="http://purl.org/dc/elements/1.1/" xmlns:cc="http://web.resource.org/cc/" xmlns:rdf="http://www.w3.org/1999/02/22-rdf-syntax-ns#" xmlns:svg="http://www.w3.org/2000/svg" xmlns="http://www.w3.org/2000/svg" xmlns:xlink="http://www.w3.org/1999/xlink" xmlns:sodipodi="http://sodipodi.sourceforge.net/DTD/sodipodi-0.dtd" xmlns:inkscape="http://www.inkscape.org/namespaces/inkscape" width="326.30713" height="340.85254" id="svg2" sodipodi:version="0.32" inkscape:version="0.45.1" sodipodi:docbase="/home/francois/travail/Free as Free Speech/Expolibre" sodipodi:docname="Linux Alpes.svg" inkscape:output_extension="org.inkscape.output.svg.inkscape" version="1.0" inkscape:export-filename="/home/francois/travail/Free as Free Speech/Expolibre/Linux Alpes.png" inkscape:export-xdpi="100" inkscape:export-ydpi="100">
  <sodipodi:namedview id="base" pagecolor="#ffffff" bordercolor="#666666" borderopacity="1.0" inkscape:pageopacity="0.0" inkscape:pageshadow="2" inkscape:zoom="0.9387221" inkscape:cx="-69.447779" inkscape:cy="201.57921" inkscape:document-units="px" inkscape:current-layer="layer1" inkscape:window-width="1920" inkscape:window-height="1125" inkscape:window-x="0" inkscape:window-y="25" showgrid="false" showguides="true"/>
  <defs id="defs4">
    <linearGradient id="linearGradient4617">
      <stop style="stop-color:#ff9191;stop-opacity:1;" offset="0" id="stop4619"/>
      <stop style="stop-color:#ff2929;stop-opacity:1;" offset="1" id="stop4621"/>
    </linearGradient>
    <linearGradient id="linearGradient4456">
      <stop id="stop4458" style="stop-color:#3f2600;stop-opacity:1;" offset="0"/>
      <stop offset="0.5" style="stop-color:#896022;stop-opacity:1;" id="stop4462"/>
      <stop id="stop4460" style="stop-color:#402600;stop-opacity:1;" offset="1"/>
    </linearGradient>
    <linearGradient id="linearGradient2395">
      <stop style="stop-color:#3b3b3b;stop-opacity:1;" offset="0" id="stop2397"/>
      <stop id="stop4421" offset="0.5" style="stop-color:#6f6f6f;stop-opacity:1;"/>
      <stop style="stop-color:#3b3b3b;stop-opacity:1;" offset="1" id="stop2399"/>
    </linearGradient>
    <linearGradient id="linearGradient6786">
      <stop id="stop6794" offset="0" style="stop-color:#6f959a;stop-opacity:1;"/>
      <stop style="stop-color:#caeef5;stop-opacity:1;" offset="1" id="stop6790"/>
    </linearGradient>
    <linearGradient id="linearGradient138">
      <stop offset="0" style="stop-color:#ffffff;stop-opacity:0.8;" id="stop139"/>
      <stop offset="1" style="stop-color:#ffffff;stop-opacity:0;" id="stop140"/>
    </linearGradient>
    <linearGradient id="linearGradient153">
      <stop offset="0" style="stop-color:#ffeed7;stop-opacity:1;" id="stop154"/>
      <stop offset="1" style="stop-color:#bdbfc2;stop-opacity:1;" id="stop155"/>
    </linearGradient>
    <linearGradient id="linearGradient162">
      <stop offset="0" style="stop-color:#ffa63f;stop-opacity:1;" id="stop163"/>
      <stop offset="1" style="stop-color:#ffff00;stop-opacity:1;" id="stop164"/>
    </linearGradient>
    <linearGradient id="linearGradient167">
      <stop offset="0" style="stop-color:#ffffff;stop-opacity:0.65;" id="stop168"/>
      <stop offset="1" style="stop-color:#ffffff;stop-opacity:0;" id="stop169"/>
    </linearGradient>
    <linearGradient id="linearGradient172">
      <stop offset="0" style="stop-color:#3f2600;stop-opacity:0.6;" id="stop173"/>
      <stop offset="1" style="stop-color:#3f2600;stop-opacity:0;" id="stop174"/>
    </linearGradient>
    <linearGradient x1="288.82358" gradientTransform="matrix(0.2786276,0,0,0.1770297,403.493,358.00971)" y1="398.85422" x2="288.37628" inkscape:collect="always" gradientUnits="userSpaceOnUse" y2="482.55939" xlink:href="#linearGradient167" id="linearGradient2438"/>
    <linearGradient x1="284.68652" gradientTransform="matrix(0.5532161,0,0,0.3724882,328.35159,278.36142)" y1="410.46326" x2="285.45923" inkscape:collect="always" gradientUnits="userSpaceOnUse" y2="485.69934" xlink:href="#linearGradient162" id="linearGradient2442"/>
    <linearGradient x1="223.10072" gradientTransform="matrix(0.3645407,-1.8978578e-2,-6.3220556e-3,0.3799592,349.6823,328.85457)" y1="570.41809" x2="230.53499" inkscape:collect="always" gradientUnits="userSpaceOnUse" y2="710.97723" xlink:href="#linearGradient167" id="linearGradient2449"/>
    <linearGradient x1="117.88966" gradientTransform="matrix(-0.3458687,0.1257974,0.1528254,0.3445373,520.41556,315.82572)" y1="587.23602" x2="182.24524" inkscape:collect="always" gradientUnits="userSpaceOnUse" y2="704.73077" xlink:href="#linearGradient167" id="linearGradient2452"/>
    <linearGradient x1="218.11714" gradientTransform="matrix(-0.4285286,0.1551816,0.1709184,0.418871,525.5052,261.54147)" y1="630.30475" x2="203.12654" inkscape:collect="always" gradientUnits="userSpaceOnUse" y2="737.8537" xlink:href="#linearGradient162" id="linearGradient2455"/>
    <linearGradient x1="236.25362" gradientTransform="matrix(0.4591722,0,0,0.4487782,328.35159,278.36142)" y1="657.11133" x2="212.5099" inkscape:collect="always" gradientUnits="userSpaceOnUse" y2="737.41229" xlink:href="#linearGradient162" id="linearGradient2461"/>
    <linearGradient x1="867.34546" gradientTransform="matrix(0.2599596,0,0,0.792686,328.35159,278.36142)" y1="234.73897" x2="867.33453" inkscape:collect="always" gradientUnits="userSpaceOnUse" y2="314.83911" xlink:href="#linearGradient167" id="linearGradient2464"/>
    <linearGradient x1="411.2215" gradientTransform="matrix(0.2595238,0,0,0.7940174,328.35159,278.36142)" y1="242.94365" x2="411.2215" inkscape:collect="always" gradientUnits="userSpaceOnUse" y2="331.44858" xlink:href="#linearGradient167" id="linearGradient2467"/>
    <linearGradient x1="322.48257" gradientTransform="matrix(0.464181,0,0,0.359811,337.49187,302.84796)" y1="435.26761" x2="323.2514" inkscape:collect="always" gradientUnits="userSpaceOnUse" y2="488.48251" xlink:href="#linearGradient167" id="linearGradient2470"/>
    <linearGradient x1="320.75104" gradientTransform="matrix(0.5082315,0,0,0.4139919,322.75462,283.42672)" y1="498.17776" x2="321.32224" inkscape:collect="always" gradientUnits="userSpaceOnUse" y2="614.50439" xlink:href="#linearGradient138" id="linearGradient2473"/>
    <linearGradient x1="375.17325" gradientTransform="matrix(0.3278518,-2.6210489e-2,5.7124528e-2,0.7277508,300.37365,278.93048)" y1="419.78485" x2="377.48541" inkscape:collect="always" gradientUnits="userSpaceOnUse" y2="324.03815" xlink:href="#linearGradient153" id="linearGradient2477"/>
    <linearGradient x1="437.57941" gradientTransform="matrix(0.3689919,0,0,0.5584583,328.35159,278.09813)" y1="528.87177" x2="437.57941" spreadMethod="reflect" inkscape:collect="always" gradientUnits="userSpaceOnUse" y2="394.10361" xlink:href="#linearGradient153" id="linearGradient2480"/>
    <linearGradient x1="389.63535" gradientTransform="matrix(0.1058296,-1.2104114e-2,1.837947e-2,0.1772619,424.1813,380.95165)" y1="242.28218" x2="387.06866" inkscape:collect="always" gradientUnits="userSpaceOnUse" y2="281.32513" xlink:href="#linearGradient167" id="linearGradient2483"/>
    <linearGradient x1="379.09573" gradientTransform="matrix(-0.1424235,-1.0809198e-2,-2.0812514e-2,0.211537,556.42906,370.79104)" y1="240.92712" x2="376.79556" inkscape:collect="always" gradientUnits="userSpaceOnUse" y2="281.01636" xlink:href="#linearGradient167" id="linearGradient2486"/>
    <linearGradient x1="381.38742" gradientTransform="matrix(-0.5369373,1.4680721e-2,1.4113734e-2,0.6908802,699.49961,235.77334)" y1="277.495" x2="380.5517" inkscape:collect="always" gradientUnits="userSpaceOnUse" y2="245.68338" xlink:href="#linearGradient153" id="linearGradient2491"/>
    <linearGradient x1="378.93771" gradientTransform="matrix(0.3867905,-2.2396633e-2,3.430321e-2,0.5971397,313.57221,274.68918)" y1="278.60202" x2="380.27319" inkscape:collect="always" gradientUnits="userSpaceOnUse" y2="243.91606" xlink:href="#linearGradient153" id="linearGradient2494"/>
    <linearGradient x1="303.01761" gradientTransform="matrix(0.5132257,-2.8925518e-2,-1.4961201e-2,0.38908,334.4123,293.52102)" y1="237.93179" x2="297.0856" inkscape:collect="always" gradientUnits="userSpaceOnUse" y2="330.09561" xlink:href="#linearGradient138" id="linearGradient2497"/>
    <linearGradient x1="400.57785" gradientTransform="matrix(-0.3504237,-4.6903655e-3,-1.3335095e-2,0.9285628,687.19587,232.78093)" y1="369.53015" x2="400.84448" inkscape:collect="always" gradientUnits="userSpaceOnUse" y2="304.07886" xlink:href="#linearGradient153" id="linearGradient2501"/>
    <radialGradient gradientTransform="matrix(0.5381349,0,0,0.1440993,247.00905,420.0725)" inkscape:collect="always" r="195.07191" gradientUnits="userSpaceOnUse" xlink:href="#linearGradient172" cy="1219.4125" id="radialGradient2505" fx="446.77762" cx="446.77762" fy="1219.4125"/>
    <linearGradient x1="420.56421" y1="517.13599" x2="381.46927" inkscape:collect="always" gradientUnits="userSpaceOnUse" y2="521.46814" xlink:href="#linearGradient138" id="linearGradient4455" gradientTransform="translate(1.2241885e-6,-6.9888765e-6)"/>
    <linearGradient x1="405.71426" y1="485.93359" x2="398.34824" inkscape:collect="always" gradientUnits="userSpaceOnUse" y2="485.93359" xlink:href="#linearGradient138" id="linearGradient4508" gradientTransform="translate(0,-4.6938918e-6)"/>
    <radialGradient inkscape:collect="always" xlink:href="#linearGradient4617" id="radialGradient4625" cx="508.15775" cy="361.30933" fx="508.15775" fy="361.30933" r="37.6908" gradientTransform="matrix(-0.5960702,-0.2350012,0.108258,-0.2745917,771.94081,594.46883)" gradientUnits="userSpaceOnUse"/>
    <linearGradient inkscape:collect="always" xlink:href="#linearGradient167" id="linearGradient4637" gradientUnits="userSpaceOnUse" gradientTransform="matrix(-8.0956066e-3,-0.1474778,0.1244293,-1.2265395e-2,482.67117,597.33982)" x1="316.93988" y1="474.01779" x2="371.60889" y2="582.63507"/>
    <linearGradient inkscape:collect="always" xlink:href="#linearGradient153" id="linearGradient4639" gradientUnits="userSpaceOnUse" gradientTransform="matrix(0.2314715,0.1039266,-8.1671203e-2,0.210366,515.41853,390.20233)" x1="381.56607" y1="655.73102" x2="279.64313" y2="386.66583"/>
    <linearGradient inkscape:collect="always" xlink:href="#linearGradient2395" id="linearGradient4680" gradientUnits="userSpaceOnUse" gradientTransform="matrix(0.9997961,-2.0195104e-2,2.0195104e-2,0.9997961,378.16827,287.8093)" spreadMethod="pad" x1="186.07143" y1="207.19182" x2="190.44643" y2="197.99492"/>
    <linearGradient inkscape:collect="always" xlink:href="#linearGradient4456" id="linearGradient4682" gradientUnits="userSpaceOnUse" spreadMethod="pad" x1="395.008" y1="413.98376" x2="402.33078" y2="413.96979" gradientTransform="translate(-2.7961709e-6,-6.7540932e-6)"/>
    <linearGradient inkscape:collect="always" xlink:href="#linearGradient4456" id="linearGradient4684" gradientUnits="userSpaceOnUse" spreadMethod="pad" x1="395.008" y1="413.98376" x2="402.33078" y2="413.96979" gradientTransform="translate(-2.796171e-6,-6.7540932e-6)"/>
    <linearGradient inkscape:collect="always" xlink:href="#linearGradient4456" id="linearGradient4686" gradientUnits="userSpaceOnUse" spreadMethod="pad" x1="395.008" y1="413.98376" x2="402.33078" y2="413.96979" gradientTransform="translate(-2.796171e-6,-6.7540932e-6)"/>
    <linearGradient inkscape:collect="always" xlink:href="#linearGradient6786" id="linearGradient4688" gradientUnits="userSpaceOnUse" spreadMethod="reflect" x1="483.10544" y1="631.88464" x2="486.7482" y2="632.06348" gradientTransform="translate(-3.0164829e-6,-6.0178929e-6)"/>
    <linearGradient inkscape:collect="always" xlink:href="#linearGradient6786" id="linearGradient4690" gradientUnits="userSpaceOnUse" spreadMethod="reflect" x1="483.10544" y1="631.88464" x2="486.7482" y2="632.06348" gradientTransform="translate(-3.0164829e-6,-6.0178929e-6)"/>
    <linearGradient inkscape:collect="always" xlink:href="#linearGradient6786" id="linearGradient4692" gradientUnits="userSpaceOnUse" spreadMethod="reflect" x1="483.10544" y1="631.88464" x2="486.7482" y2="632.06348" gradientTransform="translate(-3.0164829e-6,-6.0178929e-6)"/>
  </defs>
  <metadata id="metadata7">
    <rdf:RDF>
      <cc:Work rdf:about="">
        <dc:format>image/svg+xml</dc:format>
        <dc:type rdf:resource="http://purl.org/dc/dcmitype/StillImage"/>
      </cc:Work>
    </rdf:RDF>
  </metadata>
  <g inkscape:label="Calque 1" id="layer1" inkscape:groupmode="layer" transform="translate(-382.46061,-283.04621)">
    <rect style="opacity:1;fill:#0094f2;fill-opacity:1;stroke:#004e8b;stroke-width:1.5;stroke-miterlimit:4;stroke-dasharray:none;stroke-opacity:1" id="rect6603" width="127.03388" height="130.30963" x="432.59039" y="439.19962" ry="42.931484" rx="22.440609"/>
    <path style="fill:url(#radialGradient2505);stroke:none;stroke-width:1pt;stroke-linecap:butt;stroke-linejoin:miter" d="M 592.41051,595.78902 C 592.41051,611.3136 545.41162,623.89876 487.43556,623.89876 C 429.4595,623.89876 382.46061,611.3136 382.46061,595.78902 C 382.46061,580.26445 429.4595,567.67929 487.43556,567.67929 C 545.41162,567.67929 592.41051,580.26445 592.41051,595.78902 L 592.41051,595.78902 z " id="path175"/>
    <path style="fill:#000000;stroke:none;stroke-width:1.25" id="path106" d="M 429.86606,565.36393 C 419.70313,550.73645 417.7212,503.18066 441.43577,473.92569 C 453.1866,459.8906 456.18446,450.10944 457.11096,436.9777 C 457.74149,422.00704 446.52268,377.3102 488.83403,373.9047 C 531.68921,370.48558 529.38771,412.78967 529.14122,435.176 C 528.93649,454.07829 543.02015,464.79185 552.65378,479.5242 C 570.4843,506.59297 568.9763,553.19956 549.29504,578.42621 C 524.36571,610.0063 503.01393,596.31076 488.83403,597.46015 C 462.2814,598.91368 461.40347,613.07179 429.86606,565.36393 z "/>
    <path style="fill:url(#linearGradient2501);stroke:none;stroke-width:0.99464899" id="path113" d="M 533.38386,482.29041 C 540.74345,489.06514 559.89788,519.55903 529.60965,538.53051 C 518.93233,545.13702 539.12938,570.44429 548.82713,558.18599 C 565.94079,536.17983 555.02694,501.13367 544.7607,488.5761 C 537.7893,479.67429 527.12905,476.22501 533.38386,482.29041 z "/>
    <path style="fill:#000000;stroke:#000000;stroke-width:0.56743205" id="path111" d="M 531.3025,478.13195 C 543.43497,487.93575 565.52565,522.45077 533.30559,544.86999 C 522.72356,551.85998 542.6832,573.9007 553.8909,562.62663 C 592.85799,523.43796 552.87412,478.37598 539.11017,462.88423 C 526.80894,449.41167 515.91256,466.06713 531.3025,478.13195 z "/>
    <path style="fill:url(#linearGradient2497);stroke:none;stroke-width:1.26498997" d="M 513.84352,395.26778 C 513.41135,406.50667 501.04301,416.29494 486.21806,417.13048 C 471.3931,417.96602 459.72545,409.53242 460.15761,398.29353 C 460.58978,387.05463 472.95812,377.26636 487.78307,376.43083 C 502.60803,375.59529 514.27568,384.02888 513.84352,395.26778 z " id="path114"/>
    <path style="fill:url(#linearGradient2494);stroke:none;stroke-width:1.17873001" d="M 478.34179,422.00133 C 478.76147,429.30704 475.26549,435.45162 470.5333,435.72564 C 465.80111,435.99965 461.62469,430.29933 461.20501,422.99361 C 460.78532,415.6879 464.2813,409.54331 469.01349,409.2693 C 473.74568,408.99529 477.9221,414.69561 478.34179,422.00133 z " id="path115"/>
    <path style="fill:url(#linearGradient2491);stroke:none;stroke-width:0.93138498" d="M 486.93058,422.56077 C 487.10325,431.01336 492.56859,437.71993 499.13775,437.54031 C 505.70692,437.3607 510.8923,430.36293 510.71962,421.91034 C 510.54695,413.45776 505.08161,406.75119 498.51244,406.9308 C 491.94328,407.11041 486.7579,414.10819 486.93058,422.56077 z " id="path116"/>
    <path style="fill:#000000;stroke:none;stroke-width:1.86495996" d="M 492.37304,424.47177 C 492.27382,429.1116 494.6143,432.87811 497.60063,432.8845 C 500.58696,432.89089 503.08829,429.13474 503.1875,424.4949 C 503.28671,419.85507 500.94624,416.08856 497.95991,416.08217 C 494.97357,416.07578 492.47225,419.83193 492.37304,424.47177 z " id="path117"/>
    <path style="fill:#000000;stroke:none;stroke-width:2.39814997" d="M 473.44328,424.52066 C 473.81776,428.36154 472.37335,431.6878 470.2171,431.95007 C 468.06085,432.21234 466.00929,429.3113 465.63481,425.47042 C 465.26034,421.62954 466.70475,418.30328 468.861,418.04101 C 471.01725,417.77874 473.06881,420.67978 473.44328,424.52066 z " id="path118"/>
    <path style="fill:url(#linearGradient2486);stroke:none;stroke-width:3.1916101" d="M 493.61588,421.8184 C 493.36125,424.40646 494.56739,426.61169 496.30987,426.74394 C 498.05235,426.87618 499.67133,424.88536 499.92596,422.2973 C 500.1806,419.70925 498.97445,417.50401 497.23197,417.37177 C 495.48949,417.23952 493.87051,419.23035 493.61588,421.8184 z " id="path121"/>
    <path style="fill:url(#linearGradient2483);stroke:none;stroke-width:4.12025976" d="M 471.61844,422.48411 C 471.84331,424.65282 470.97598,426.53096 469.6812,426.67905 C 468.38643,426.82714 467.15452,425.1891 466.92966,423.02038 C 466.70479,420.85167 467.57212,418.97353 468.8669,418.82544 C 470.16167,418.67736 471.39358,420.3154 471.61844,422.48411 z " id="path122"/>
    <path style="fill:url(#linearGradient2480);stroke:none;stroke-width:1.25" id="path128" d="M 445.7882,502.99409 C 451.61504,489.78291 463.99777,466.57586 464.26151,448.63048 C 464.26151,434.35753 507.01364,430.94885 510.44456,445.19956 C 513.87548,459.45028 522.58352,480.82657 528.12574,491.11888 C 533.66751,501.41073 549.82842,534.10524 532.61254,562.63617 C 517.10712,587.89552 470.09289,607.87911 444.99652,559.20571 C 436.55177,542.31576 438.05796,521.38524 445.7882,502.99409 z "/>
    <path style="fill:url(#linearGradient2477);stroke:none;stroke-width:1.15804005" id="path112" d="M 440.51992,493.19025 C 435.54115,502.61369 425.18087,527.39709 450.43155,540.95671 C 477.61324,555.35267 477.48253,584.98085 444.85664,570.88357 C 415.02956,558.1414 428.21595,506.65254 436.55801,494.33306 C 442.0277,485.70453 450.23103,475.14298 440.51992,493.19025 z "/>
    <path style="fill:#000000;stroke:#000000;stroke-width:0.56743187" d="M 444.79451,482.5098 C 436.86635,495.45088 418.55488,526.36082 443.30194,541.85092 C 442.5969,550.94367 451.98262,577.54775 452.40527,576.63078 C 452.86622,575.63068 452.23877,574.4635 436.584,564.99034 C 414.54291,551.766 409.05125,526.2687 387.794,513.7458 C 415.60136,519.22705 440.05804,475.11956 448.9,464.96889 C 469.07515,442.18083 452.78304,469.09389 444.79451,482.5098 z " sodipodi:nodetypes="ccscccc" id="path109"/>
    <path style="font-size:12px;fill:url(#linearGradient2473);stroke:none;stroke-width:1.23705006;stroke-dasharray:none" id="path125" d="M 522.0571,508.00874 C 522.0571,522.4307 508.21547,541.16519 484.4513,540.997 C 459.94379,541.19945 449.48361,522.4307 449.48361,508.00874 C 449.48361,493.58678 465.74014,481.88218 485.77059,481.88218 C 505.80056,481.88218 522.0571,493.58678 522.0571,508.00874 z "/>
    <path style="font-size:12px;fill:url(#linearGradient2470);stroke:none;stroke-width:1.38846004;stroke-dasharray:none" id="path127" d="M 509.12532,462.61809 C 508.86155,477.56539 499.13488,481.09141 486.82569,481.09141 C 474.51607,481.09141 465.58113,478.88488 464.52563,462.61809 C 464.52563,452.42097 474.51607,446.51986 486.82569,446.51986 C 499.13488,446.51986 509.12532,452.42097 509.12532,462.61809 z "/>
    <path style="fill:url(#linearGradient2467);stroke:none;stroke-width:1.25" d="M 436.48992,485.5762 C 444.53202,473.32149 459.67802,454.54267 437.87139,488.21499 C 420.18976,515.92518 431.33321,533.73346 437.07971,538.62064 C 453.66098,553.40202 452.95237,563.29213 439.98269,555.51014 C 425.9955,547.19703 408.55431,531.09947 402.30504,515.77314 C 408.11396,517.28764 428.04494,498.24355 436.48992,485.5762 z " sodipodi:nodetypes="cccccc" id="path129"/>
    <path style="fill:url(#linearGradient2464);stroke:none;stroke-width:1.25" id="path131" d="M 551.0854,490.59003 C 544.13141,476.1995 521.97206,439.79262 552.14127,482.14528 C 579.58727,520.41153 560.32228,547.06539 556.89136,549.70463 C 553.46089,552.34341 541.84897,557.62144 545.27989,548.38501 C 548.71035,539.14858 565.81366,521.61448 551.0854,490.59003 z "/>
    <path style="font-size:12px;fill:url(#linearGradient4639);stroke:none;stroke-width:2.85509992;stroke-dasharray:none" id="path177" d="M 538.73018,550.87668 C 535.22912,546.01103 532.83041,531.87266 538.21393,525.88493 C 543.62945,519.73696 553.16265,523.46622 560.60693,528.85391 C 567.98913,534.39388 562.04848,542.35468 552.8385,549.67782 C 542.79322,557.48032 543.54939,556.96097 538.73018,550.87668 z " sodipodi:nodetypes="ccccc"/>
    <path style="fill:#0073bd;fill-opacity:1;stroke:none;stroke-width:2;stroke-miterlimit:4;stroke-opacity:1" d="M 454.94745,563.5746 L 462.01852,563.5746 L 462.01852,573.17105 L 454.94745,579.61077 L 454.94745,563.5746 z " id="rect6710" sodipodi:nodetypes="ccccc"/>
    <path style="fill:#0094f2;fill-opacity:1;stroke:#00558c;stroke-width:1;stroke-miterlimit:4;stroke-dasharray:none;stroke-opacity:1" d="M 433.98679,541.16189 C 433.98679,541.16189 464.1651,555.38294 477.17081,553.85193 C 477.29708,562.67498 477.15503,561.34915 477.17081,569.63556 C 459.62893,570.72997 434.04992,556.94552 434.04992,556.94552 L 433.98679,541.16189 z " id="rect6713" sodipodi:nodetypes="ccccc"/>
    <path sodipodi:nodetypes="ccccc" id="path6716" d="M 545.97708,541.22502 C 545.97708,541.22502 515.79877,555.44607 502.79306,553.91506 C 502.66679,562.73811 502.80884,561.41228 502.79306,569.69869 C 520.33494,570.7931 545.91395,557.00865 545.91395,557.00865 L 545.97708,541.22502 z " style="fill:#0094f2;fill-opacity:1;stroke:#00558c;stroke-width:1;stroke-miterlimit:4;stroke-dasharray:none;stroke-opacity:1"/>
    <g id="g6683" transform="matrix(1.1121162,0,0,1.1121162,317.03634,-71.913267)">
      <path sodipodi:nodetypes="cccccc" id="path6605" d="M 123.39645,472.78715 C 121.21434,469.32442 115.58491,474.04281 114.019,477.73223 C 111.15198,483.43516 111.92667,490.21055 114.86183,495.55903 C 121.17138,511.9253 118.90769,530.67592 119.25177,549.44364 C 123.40253,549.37596 131.19491,549.61297 134.90601,549.4523 C 133.97243,524.09637 136.09456,495.83628 123.39645,472.78715 z " style="fill:#0094f2;fill-opacity:1;fill-rule:evenodd;stroke:#004f8c;stroke-width:1px;stroke-linecap:butt;stroke-linejoin:miter;stroke-opacity:1"/>
      <g transform="translate(-6.3134534e-2,-0.2525381)" id="g6657">
        <path style="fill:#000000;fill-opacity:1;fill-rule:evenodd;stroke:#000000;stroke-width:1px;stroke-linecap:butt;stroke-linejoin:miter;stroke-opacity:1" d="M 119.70308,550.19012 C 119.62491,554.87715 120.65517,560.58274 123.34476,564.96766 C 123.25293,572.47534 122.97635,574.92706 127.24778,578.10081 C 130.87087,575.33659 131.31395,572.59807 131.25246,565.06687 C 133.14734,561.19412 134.33587,554.92415 134.34128,550.23868 C 128.23649,550.19064 126.02414,550.11162 119.70308,550.19012 z " id="path6618" sodipodi:nodetypes="cccccc"/>
        <path style="fill:#0073bd;fill-opacity:1;stroke:none;stroke-width:1.5;stroke-miterlimit:4;stroke-opacity:1" d="M 124.18563,551.13707 C 128.36829,551.12128 124.10671,551.23177 130.62535,551.26334 C 130.75951,554.49898 130.61747,562.3908 130.56814,567.70593 C 130.57073,573.79102 129.59256,575.52997 127.21609,577.27476 C 124.83962,575.48401 124.15337,573.79377 124.04405,567.25656 C 124.12413,562.10832 124.08303,556.6061 124.18563,551.13707 z " id="rect6628" sodipodi:nodetypes="cccccc"/>
        <rect style="fill:#000000;fill-opacity:1;stroke:none;stroke-width:1.5;stroke-miterlimit:4;stroke-dasharray:none;stroke-opacity:1" id="rect6631" width="8.1443548" height="1.3258252" x="123.17549" y="564.4585"/>
        <rect y="570.77197" x="123.11235" height="1.3258252" width="8.1443548" id="rect6633" style="fill:#000000;fill-opacity:1;stroke:none;stroke-width:1.5;stroke-miterlimit:4;stroke-dasharray:none;stroke-opacity:1"/>
      </g>
      <path style="fill:#0094f2;fill-opacity:1;fill-rule:evenodd;stroke:#00558c;stroke-width:1px;stroke-linecap:butt;stroke-linejoin:miter;stroke-opacity:1" d="M 185.35168,469.50416 C 188.66479,463.63988 188.96556,460.64058 196.37062,462.07486 C 199.09711,462.60296 205.55547,465.88643 202.34633,471.06283 C 189.93149,491.08816 181.71249,529.55033 187.66546,546.22378 C 182.56768,548.05014 177.23754,550.11805 173.77898,551.22006 C 168.2097,539.6906 169.82373,496.98898 185.35168,469.50416 z " id="path6616" sodipodi:nodetypes="cssccs"/>
      <g id="g6673" transform="matrix(0.9372119,-0.3487606,0.3487606,0.9372119,-130.19778,77.691329)">
        <path sodipodi:nodetypes="cccccc" id="path6675" d="M 119.70308,550.19012 C 119.62491,554.87715 120.65517,560.58274 123.34476,564.96766 C 123.25293,572.47534 122.97635,574.92706 127.24778,578.10081 C 130.87087,575.33659 131.31395,572.59807 131.25246,565.06687 C 133.14734,561.19412 134.33587,554.92415 134.34128,550.23868 C 128.23649,550.19064 126.02414,550.11162 119.70308,550.19012 z " style="fill:#000000;fill-opacity:1;fill-rule:evenodd;stroke:#000000;stroke-width:1px;stroke-linecap:butt;stroke-linejoin:miter;stroke-opacity:1"/>
        <path sodipodi:nodetypes="cccccc" id="path6677" d="M 124.18563,551.13707 C 128.36829,551.12128 124.10671,551.23177 130.62535,551.26334 C 130.75951,554.49898 130.61747,562.3908 130.56814,567.70593 C 130.57073,573.79102 129.59256,575.52997 127.21609,577.27476 C 124.83962,575.48401 124.15337,573.79377 124.04405,567.25656 C 124.12413,562.10832 124.08303,556.6061 124.18563,551.13707 z " style="fill:#0073bd;fill-opacity:1;stroke:none;stroke-width:1.5;stroke-miterlimit:4;stroke-opacity:1"/>
        <rect y="564.4585" x="123.17549" height="1.3258252" width="8.1443548" id="rect6679" style="fill:#000000;fill-opacity:1;stroke:none;stroke-width:1.5;stroke-miterlimit:4;stroke-dasharray:none;stroke-opacity:1"/>
        <rect style="fill:#000000;fill-opacity:1;stroke:none;stroke-width:1.5;stroke-miterlimit:4;stroke-dasharray:none;stroke-opacity:1" id="rect6681" width="8.1443548" height="1.3258252" x="123.11235" y="570.77197"/>
      </g>
    </g>
    <g id="g4465">
      <path style="fill:url(#linearGradient2455);stroke:#e68c3f;stroke-width:2.83715868" d="M 556.03,599.27261 C 569.49536,582.94347 599.38728,586.29302 579.22804,563.90385 C 574.96276,559.10389 576.2359,548.69785 571.05446,544.30248 C 564.89118,538.91297 558.09244,543.333 551.84536,540.51447 C 545.58712,537.49315 539.04608,531.61949 531.40671,535.79726 C 523.76776,539.97487 522.94584,550.84333 522.22541,565.07111 C 521.59374,575.31963 512.25483,592.4572 517.21308,601.87384 C 524.4845,616.47596 543.19133,614.54265 556.03,599.27261 z " id="path133"/>
      <path style="fill:url(#linearGradient2452);stroke:none;stroke-width:1.52532005" d="M 550.17381,577.44502 C 571.01698,546.67812 555.4825,546.9022 550.27905,544.57515 C 545.06045,542.08183 539.52546,537.24965 533.38852,540.65388 C 527.25193,544.05799 526.90075,552.96487 526.73242,564.62572 C 526.51877,573.02493 519.48712,586.98529 523.71637,594.78022 C 528.78932,603.86621 541.10106,590.66959 550.17381,577.44502 z " id="path134"/>
    </g>
    <g id="g4489" transform="matrix(1,0,0,1.0870968,0,-51.966105)">
      <rect style="opacity:1;fill:#412900;fill-opacity:1" y="375.2193" x="394.64285" height="221.42857" width="8.5714283" id="rect4477"/>
      <rect style="opacity:1;fill:url(#linearGradient4508);fill-opacity:1" y="375.2193" x="394.64285" height="221.42857" width="8.5714283" id="rect4479"/>
    </g>
    <g id="g4457">
      <path style="fill:url(#linearGradient2461);stroke:#e68c3f;stroke-width:2.8371594" d="M 428.63496,603.80449 C 410.2765,594.08279 383.57996,605.67656 393.2717,579.26147 C 395.21277,573.25214 390.3778,564.27764 393.53544,558.41357 C 397.2301,551.28754 405.14737,552.87135 409.89791,548.12081 C 414.58172,543.17689 417.55097,534.66178 426.25992,535.9814 C 434.96841,537.30102 440.76121,547.99325 446.84362,561.05236 C 451.32997,570.42089 467.24439,583.59711 466.2044,594.08053 C 464.98056,610.19559 446.67248,613.23249 428.63496,603.80449 z " id="path132"/>
      <path style="fill:url(#linearGradient2449);stroke:none;stroke-width:1.52532005" d="M 424.36836,581.87536 C 393.17199,561.68045 407.76536,554.8242 412.50112,551.65216 C 418.18029,547.58408 418.22439,539.65562 425.2032,540.39533 C 432.18165,541.13506 436.24431,549.7266 440.94943,560.39743 C 444.42356,568.04748 456.34523,578.15743 455.49287,586.98475 C 454.36745,597.33001 437.88222,590.51139 424.36836,581.87536 z " id="path135"/>
    </g>
    <g id="g4545">
      <g transform="matrix(0.9997961,2.0195104e-2,-2.0195104e-2,0.9997961,10.181786,-12.341557)" id="g4539">
        <path style="fill:url(#linearGradient4680);fill-opacity:1" d="M 559.76743,478.98821 C 559.39861,478.98614 559.15702,478.98704 559.06929,479.02145 C 558.26509,479.33688 558.69417,479.69991 560.23285,480.01879 L 561.76209,480.35123 L 562.62645,481.1491 C 563.10319,481.59043 563.96494,482.80784 564.52139,483.84191 C 565.07783,484.87597 565.61466,485.76413 565.71819,485.83658 C 565.82172,485.90903 567.29852,485.8783 569.0094,485.77008 C 570.72027,485.66188 572.97294,485.45655 574.02931,485.30466 L 575.9575,485.03871 L 576.82186,485.63711 C 577.29842,485.97063 578.11137,486.76275 578.61706,487.39907 L 579.51466,488.56263 L 580.04657,490.42432 C 580.26075,491.17864 580.55393,491.81974 580.74471,492.11979 C 580.74875,492.12614 580.74073,492.147 580.74471,492.15303 C 580.49506,493.37461 580.95127,494.68145 582.04123,495.44423 L 585.16623,497.63837 C 586.03248,498.2446 587.0955,498.33963 588.02525,498.0373 L 587.75929,498.43624 L 588.42418,498.90166 C 590.05937,499.97032 592.53934,501.19944 593.31112,501.32851 L 594.17548,501.46149 L 594.57441,502.05989 L 594.97335,502.65829 L 595.60499,502.75803 L 596.23664,502.82451 L 596.56908,503.48941 L 596.90153,504.12105 L 597.66615,504.22078 L 598.43078,504.32052 L 598.56375,504.81919 L 598.69673,505.31785 L 601.88821,507.47875 L 605.07968,509.63964 L 605.17941,510.23804 L 605.27914,510.80319 L 607.24057,512 L 609.20199,513.1968 L 609.06902,513.66222 L 608.96928,514.12764 L 610.46528,515.15822 L 611.92804,516.22205 L 612.02778,516.92018 L 612.09427,517.65156 L 613.52378,518.64889 L 614.95329,519.64623 L 614.85356,520.0784 L 614.72058,520.47734 L 615.38547,520.94276 C 615.7507,521.19837 616.0604,521.56462 616.05036,521.74063 C 616.0403,521.91667 616.28759,522.23671 616.61551,522.47201 C 616.94344,522.70733 617.30979,523.1807 617.41338,523.50259 C 617.51697,523.82448 617.82049,524.1717 618.07827,524.26722 L 618.54369,524.43343 L 618.57695,524.9986 C 618.60203,525.30346 618.90139,525.72443 619.24183,525.96269 L 619.87347,526.39487 L 619.7405,526.86029 C 619.63867,527.26896 620.13994,528.23062 621.07028,529.42012 L 621.46921,529.91878 L 621.86815,529.65282 C 622.0792,529.51036 622.56006,528.75667 622.96521,527.9906 L 623.72984,526.59433 L 623.43064,525.19806 C 623.0958,523.54174 621.51629,519.90468 619.67401,516.52124 C 615.26025,508.41521 608.4952,500.70068 600.52517,494.67962 L 596.93477,491.95356 L 595.07308,491.38841 L 593.21139,490.8565 L 592.8457,491.18894 C 592.82268,490.19829 592.36036,489.24333 591.48268,488.62911 L 588.35769,486.43498 C 587.36732,485.74189 586.11433,485.68495 585.09973,486.16902 L 585.06648,486.10253 L 584.93351,485.60386 L 584.03591,485.47089 C 583.53615,485.39645 582.96951,485.1374 582.77262,484.90573 C 582.26946,484.3137 578.94518,482.76226 577.85243,482.61186 C 577.35151,482.54292 576.30099,482.10883 575.52532,481.64777 C 574.74963,481.18669 573.57748,480.7118 572.899,480.58395 C 572.22053,480.4561 571.53235,480.26074 571.36975,480.15177 C 570.85555,479.80716 562.34918,479.0027 559.76743,478.98821 z M 595.17281,494.54663 C 597.13157,494.46067 597.48811,497.63952 595.43877,498.10379 C 593.23529,498.60299 592.4118,495.20502 594.74063,494.61312 C 594.88523,494.57638 595.04223,494.55236 595.17281,494.54663 z " id="path2372"/>
        <path style="fill:#323232;fill-opacity:1" d="M 614.11834,518.29756 C 614.11834,518.29756 614.11834,518.29756 614.11834,518.29756 z M 615.00074,515.10295 C 616.77397,513.90883 605.35177,500.10509 600.73849,496.18792 C 599.26464,494.93646 597.62729,493.48628 595.83007,493.01275 C 594.03284,492.53922 592.0269,493.75421 591.9348,496.06565 C 591.8427,498.37709 594.02614,499.40498 595.76766,500.32766 C 603.52173,504.43585 613.2206,516.30172 615.00074,515.10295 z M 593.33057,496.85737 C 592.60694,494.37524 596.04562,493.40308 596.79989,495.71706 C 597.55416,498.03104 594.05918,499.35659 593.33057,496.85737 z " id="path2370" sodipodi:nodetypes="cccszzszczz"/>
      </g>
      <g style="fill:url(#linearGradient4682);fill-opacity:1" id="g6720" transform="matrix(0.8763475,0.6540744,-0.3628048,0.4847151,371.12896,51.992158)">
        <path sodipodi:nodetypes="ccccc" id="rect6722" d="M 394.64285,375.2193 L 403.21428,375.2193 L 401.68954,596.54279 L 396.17883,596.67466 L 394.64285,375.2193 z " style="fill:url(#linearGradient4684);fill-opacity:1"/>
        <path sodipodi:nodetypes="ccccc" id="rect6724" d="M 394.64285,375.2193 L 403.21428,375.2193 L 401.67829,596.62107 L 396.22675,596.56431 L 394.64285,375.2193 z " style="fill:url(#linearGradient4686);fill-opacity:1"/>
      </g>
      <g style="fill:url(#linearGradient4688);fill-opacity:1" transform="matrix(0.7935484,0.5784175,-0.397768,0.5579907,367.53476,-29.781809)" id="g6814">
        <rect style="opacity:1;fill:url(#linearGradient4690);fill-opacity:1;stroke:none;stroke-width:1;stroke-miterlimit:4;stroke-dasharray:none;stroke-opacity:1" id="rect6800" width="7.8286824" height="6.5611815" x="483.10544" y="625.32501"/>
        <rect y="631.88312" x="486.07275" height="6.5611815" width="1.8940362" id="rect6810" style="opacity:1;fill:url(#linearGradient4692);fill-opacity:1;stroke:none;stroke-width:1;stroke-miterlimit:4;stroke-dasharray:none;stroke-opacity:1"/>
      </g>
    </g>
    <g id="g4473" transform="matrix(-0.4414078,0.8973066,-0.8973066,-0.4414078,1273.1694,285.34779)">
      <path style="font-size:12px;fill:#000000;stroke:none;stroke-width:2.85509992" d="M 560.57641,541.5233 C 558.14541,545.76241 548.12375,552.48917 541.44488,550.73587 C 534.62991,549.01624 531.56085,539.42407 532.89541,532.16449 C 534.13432,523.98909 541.44462,523.58277 550.612,527.61546 C 560.4679,532.07927 563.4484,535.90511 560.57641,541.5233 z " id="path136"/>
      <path style="font-size:12px;fill:url(#linearGradient4637);stroke:none;stroke-width:2.85509992" d="M 553.86154,539.14894 C 552.31252,542.09233 545.70778,546.76299 541.17902,545.5456 C 536.5594,544.35159 534.29934,537.69136 535.04921,532.65075 C 535.71608,526.97424 540.62561,526.69212 546.87489,529.49218 C 553.59613,532.59158 555.67913,535.24801 553.86154,539.14894 z " id="path137"/>
    </g>
    <path style="fill:url(#linearGradient2442);stroke:#e68c3f;stroke-width:1.70229566" id="path119" d="M 469.05381,432.12594 C 472.29816,429.05272 480.31666,419.83945 495.36495,429.51348 C 498.16216,431.3338 500.43189,431.5004 505.81523,433.80553 C 516.58554,438.23105 511.43598,448.90331 500.03015,452.46633 C 495.1466,454.05014 490.70792,459.98185 481.81377,459.47479 C 474.21744,459.03129 472.22689,454.08464 467.56079,451.34644 C 459.26766,446.66581 458.04382,440.33645 462.52199,436.9777 C 467.00062,433.61896 468.75239,432.41147 469.05381,432.12594 z "/>
    <path style="fill:none;stroke:#e68c3f;stroke-width:1.13486373" id="path120" d="M 505.95822,440.71277 C 501.47188,440.97651 491.70751,450.74088 481.4152,450.74088 C 471.1229,450.74088 465.05319,441.24025 463.46983,441.24025"/>
    <path style="fill:url(#linearGradient2438);stroke:none" id="path123" d="M 474.16887,431.28354 C 475.79853,429.81906 480.93902,425.80027 487.75615,429.91467 C 489.19245,430.72933 490.67573,431.61603 492.8816,432.8272 C 497.25093,435.36853 495.08678,439.03082 489.85212,441.34804 C 487.4766,442.3204 483.56035,444.46629 480.57829,444.31617 C 477.26447,444.01159 475.12062,441.85034 472.92433,440.44274 C 468.89521,437.78136 469.13987,435.63244 471.01147,433.84326 C 472.42633,432.61478 474.01746,431.41961 474.16887,431.28354 z "/>
    <g id="g4469">
      <path style="opacity:1" sodipodi:cx="389.82144" sodipodi:cy="515.57648" sodipodi:type="arc" transform="matrix(0.9850033,-0.1725355,0.1725355,0.9850033,-74.894945,77.847149)" d="M 399.64287 515.57648 A 9.8214283 18.214285 0 1 1  380.00001,515.57648 A 9.8214283 18.214285 0 1 1  399.64287 515.57648 z" sodipodi:rx="9.8214283" id="path2507" sodipodi:ry="18.214285"/>
      <path style="opacity:1;fill:url(#linearGradient4455);fill-opacity:1" sodipodi:cx="389.82144" sodipodi:cy="515.57648" sodipodi:type="arc" transform="matrix(0.7083849,-0.1240824,0.1240824,0.7083849,57.918131,200.92387)" d="M 399.64287 515.57648 A 9.8214283 18.214285 0 1 1  380.00001,515.57648 A 9.8214283 18.214285 0 1 1  399.64287 515.57648 z" sodipodi:rx="9.8214283" id="path3478" sodipodi:ry="18.214285"/>
    </g>
    <g id="g4637" style="fill:none;fill-rule:evenodd;stroke:#000000;stroke-width:1px;stroke-linecap:butt;stroke-linejoin:miter;stroke-opacity:1"/>
    <path style="font-size:40px;font-style:italic;font-variant:normal;font-weight:bold;font-stretch:normal;text-align:center;line-height:125%;writing-mode:lr-tb;text-anchor:middle;fill:none;fill-rule:evenodd;stroke:none;stroke-width:1px;stroke-linecap:butt;stroke-linejoin:miter;stroke-opacity:1;font-family:Purisa" id="path5553" sodipodi:nodetypes="cccc" d="M 392.85714,349.57247 C 435.70759,340.59893 489.23433,349.46629 516.15251,354.89492 C 547.19798,359.80279 585.49564,355.74504 615.64907,347.4401 C 645.77721,341.85138 669.05545,336.68322 707.5,345.6439"/>
    <path id="path4499" style="fill:#ffffff;fill-opacity:1;fill-rule:evenodd;stroke:#000000;stroke-width:1.5;stroke-linecap:butt;stroke-linejoin:miter;stroke-miterlimit:4;stroke-dasharray:none;stroke-opacity:1" d="M 707.5,288.64643 C 703.98026,321.53568 709.69455,332.93 707.5,359.86218 C 669.05545,350.9015 645.77721,356.06966 615.64907,361.65838 C 585.49564,369.96332 547.19798,374.02107 516.15251,369.1132 C 489.23433,363.68457 435.76912,355.11623 392.85714,363.79075 C 393.0424,292.58572 393.0424,363.86997 392.85714,292.575 C 435.70759,283.60146 489.23433,292.46882 516.15251,297.89745 C 547.19798,302.80532 585.49564,298.74757 615.64907,290.44263 C 645.77721,284.85391 669.05545,279.68575 707.5,288.64643 z " sodipodi:nodetypes="ccccccccc"/>
    <g id="g6703" transform="translate(267.85714,11.071429)">
      <rect y="543.79407" x="206.43184" height="13.922011" width="11.681388" id="rect6697" style="opacity:1;fill:none;fill-opacity:1;stroke:#000000;stroke-width:1.82798827;stroke-miterlimit:4;stroke-dasharray:none;stroke-opacity:1"/>
      <rect style="opacity:1;fill:none;fill-opacity:1;stroke:#000000;stroke-width:1.82798827;stroke-miterlimit:4;stroke-dasharray:none;stroke-opacity:1" id="rect6699" width="11.681388" height="13.922011" x="225.98541" y="543.79407"/>
      <rect y="544.41583" x="213.83929" height="12.678572" width="16.34127" id="rect6701" style="opacity:1;fill:#000000;fill-opacity:1;stroke:none;stroke-width:2;stroke-miterlimit:4;stroke-dasharray:none;stroke-opacity:1"/>
    </g>
    <path style="fill:url(#radialGradient4625);fill-opacity:1;stroke:#630000;stroke-width:1.1630435;stroke-miterlimit:4;stroke-opacity:1" d="M 528.76296,398.59764 C 534.3188,414.8104 511.48005,389.88866 491.03397,389.53152 C 471.66235,389.19016 451.49391,411.27487 456.03959,396.57733 C 460.3077,382.77728 479.86905,369.02958 496.44188,371.67154 C 512.97362,374.30695 523.28451,382.61068 528.76296,398.59764 z " id="path4583" sodipodi:nodetypes="csszz"/>
    <path style="fill:#ff2a2a;fill-opacity:1;fill-rule:evenodd;stroke:#630000;stroke-width:1;stroke-linecap:butt;stroke-linejoin:miter;stroke-miterlimit:4;stroke-dasharray:none;stroke-opacity:1" d="M 490.58224,384.49451 C 515.74436,385.11646 537.72662,401.13134 532.45849,408.32108 C 527.09849,415.63622 510.32611,394.4447 490.56428,394.56426 C 470.53502,394.68383 455.16396,414.21422 449.94085,408.47099 C 444.59503,402.59283 465.42533,383.87267 490.58224,384.49451 z " id="path4556" sodipodi:nodetypes="czzzz"/>
    <path style="fill:none;fill-opacity:1;fill-rule:evenodd;stroke:#004e8b;stroke-width:1.5;stroke-linecap:butt;stroke-linejoin:miter;stroke-miterlimit:4;stroke-dasharray:none;stroke-opacity:1" d="M 557.09074,462.02181 C 557.01777,465.6017 550.2097,467.81547 544.08502,468.84033" id="path4590" sodipodi:nodetypes="cc"/>
    <path style="font-size:44px;font-style:italic;font-variant:normal;font-weight:bold;font-stretch:normal;text-align:center;line-height:125%;writing-mode:lr-tb;text-anchor:middle;fill:#000000;fill-opacity:1;stroke:none;stroke-width:1px;stroke-linecap:butt;stroke-linejoin:miter;stroke-opacity:1;font-family:Purisa" d="M 595.93954,302.52086 C 594.90118,302.61202 594.60094,303.83237 594.55012,304.69435 C 593.94714,310.69955 594.72869,316.71214 595.3182,322.68391 C 595.9294,328.83022 596.39952,335.01122 597.08645,341.13735 C 597.26641,342.15104 597.35178,343.2232 597.75675,344.16911 C 598.36764,344.91997 599.5665,344.68966 600.21045,344.11068 C 600.86007,343.43919 600.44682,342.39787 600.49091,341.57145 C 599.30943,329.29284 598.56194,316.97098 597.20636,304.71013 C 597.06239,303.9938 597.23912,302.85967 596.35772,302.55776 C 596.2212,302.51973 596.08061,302.51 595.93954,302.52086 z M 459.96241,305.04528 C 459.04189,305.29588 458.29738,306.07962 457.90844,306.92706 C 457.52685,308.0298 458.40233,309.28036 459.55039,309.39613 C 461.25246,309.7235 462.70332,307.4199 461.62588,306.04767 C 461.18465,305.59586 460.65209,305.00577 459.96241,305.04528 z M 425.58916,306.75795 C 424.64105,306.87192 424.44319,307.97712 424.35494,308.75395 C 422.8635,317.77309 421.70921,326.84934 420.58953,335.91633 C 420.46373,337.45435 420.34426,339.07081 420.84166,340.55313 C 421.2195,341.38933 422.20726,341.48327 423.01247,341.48173 C 426.46867,341.60027 429.84307,340.67129 433.187,339.91665 C 436.29022,339.13326 439.42871,338.36588 442.32225,336.97714 C 443.04355,336.55148 443.92223,336.02435 444.05029,335.13225 C 444.06665,334.01849 442.85291,333.11088 441.79339,333.50876 C 439.34972,334.10644 436.95748,334.85944 434.50427,335.44207 C 431.40402,336.21555 428.29031,337.07624 425.12486,337.44451 C 424.63361,337.531 424.33047,336.98868 424.42826,336.55283 C 424.33518,333.36458 425.03241,330.22178 425.34909,327.06087 C 426.04335,321.28168 427.01192,315.51919 427.34487,309.69746 C 427.39837,308.5756 426.97217,306.80949 425.58916,306.75795 z M 647.18425,312.62468 C 645.52697,312.64857 643.70293,312.56996 642.31241,313.62234 C 639.21318,315.51064 636.86195,318.43493 635.10335,321.56314 C 633.65197,324.53432 633.68694,328.07809 634.38076,331.27337 C 635.2645,334.49716 638.08304,337.37475 641.54506,337.5552 C 644.89465,337.71381 647.97562,335.98567 650.58948,334.06719 C 653.03099,332.2053 655.18517,329.86657 656.4917,327.07011 C 656.70767,326.6271 656.60426,325.86085 655.99357,325.86786 C 654.78335,326.15309 653.98663,327.22166 653.05188,327.97027 C 650.4902,330.35275 647.91701,332.97197 644.52847,334.12045 C 642.77145,334.66293 640.74132,334.22098 639.45111,332.90609 C 637.76356,331.41495 636.66632,329.06044 637.17884,326.79953 C 637.23807,326.51971 637.04899,326.03745 637.32643,325.87094 C 642.36344,325.23388 647.41474,324.24184 652.08857,322.24574 C 653.27484,321.70811 654.43102,320.76652 654.57652,319.38745 C 654.83889,317.66091 653.82228,316.06615 652.78963,314.78934 C 651.67239,313.44869 649.99118,312.56145 648.21432,312.6339 C 647.87118,312.62056 647.52758,312.62 647.18425,312.62468 z M 675.28183,313.15969 C 671.59029,313.11226 668.14007,315.01155 665.66692,317.64276 C 664.61638,318.69818 663.48892,319.89148 663.24397,321.41862 C 663.14145,323.21048 664.63175,324.5036 665.8845,325.53659 C 666.44586,326.06864 667.18799,326.28226 667.88556,326.5549 C 669.28563,327.2951 670.64901,328.1181 672.12093,328.68746 C 673.1678,329.27982 673.66369,330.79839 672.83736,331.77149 C 671.78797,333.49859 670.37947,335.22045 668.40348,335.87636 C 666.71321,336.23557 665.00242,335.26905 663.97269,333.96998 C 663.58828,333.2115 663.56337,332.00463 662.56751,331.75919 C 661.60277,331.63066 660.98778,332.6883 660.87944,333.51798 C 660.71059,334.80774 661.10413,336.27787 662.14011,337.1032 C 663.60641,338.07032 665.4208,338.30203 667.10592,338.68058 C 668.21243,338.89315 669.37432,338.67922 670.29706,338.02323 C 672.60255,336.73059 674.64322,334.78974 675.52166,332.24808 C 676.16098,330.73924 676.53339,328.75406 675.35235,327.40241 C 673.99871,325.8337 671.96676,325.07235 670.14333,324.20385 C 668.77517,323.56905 667.17674,322.85906 666.63855,321.35405 C 666.34024,320.50368 667.31933,320.04417 667.78545,319.52761 C 670.03788,317.46929 672.91979,315.70746 676.06898,315.88704 C 676.8202,315.95959 677.49105,316.4536 677.73859,317.16616 C 678.1961,317.90636 679.38281,318.47994 680.1185,317.78727 C 680.77484,316.97338 680.11518,315.92318 679.68803,315.17061 C 679.14092,314.14222 678.21636,313.13326 676.95452,313.20581 C 676.3981,313.16727 675.83954,313.15176 675.28183,313.15969 z M 623.54822,314.31274 C 619.95638,314.30055 616.55508,315.66405 613.34909,317.13849 C 612.97226,317.25146 612.42685,317.7059 612.07304,317.3445 C 611.72156,316.69396 610.91753,316.24374 610.20356,316.59732 C 609.03357,317.09306 608.61235,318.44323 608.33716,319.57374 C 608.26459,320.35151 608.20233,321.17612 607.58691,321.7384 C 606.88703,322.50794 605.76434,323.2986 605.96649,324.4842 C 606.22536,325.25513 607.21367,325.26887 607.86364,325.06534 C 608.53252,325.14311 608.43941,326.01723 608.58929,326.48897 C 609.09498,329.58127 609.13295,332.73843 609.49547,335.85409 C 610.00357,341.00433 610.59377,346.19373 612.01771,351.17659 C 612.19424,351.91927 612.83587,352.64042 613.6658,352.49875 C 614.6292,352.48805 615.67482,351.72967 615.54728,350.68156 C 615.54083,347.61575 614.59519,344.65434 614.15815,341.6308 C 614.03259,340.94467 613.90243,340.25901 613.7642,339.57535 C 615.84807,339.60966 618.01559,339.25375 619.72932,338.01335 C 623.31973,335.62735 625.39696,331.60812 626.89054,327.66355 C 628.00193,324.7671 629.00792,321.70584 628.82151,318.5652 C 628.69273,316.9302 627.7723,315.24106 626.14951,314.69709 C 625.3265,314.37937 624.42835,314.29576 623.54822,314.31274 z M 581.55253,314.82931 C 580.34842,314.9945 579.91346,316.31332 579.34063,317.20633 C 576.23825,322.80192 573.67715,328.67978 571.21196,334.57571 C 570.32975,336.68223 569.46052,338.83576 568.05106,340.64845 C 567.12055,342.08909 566.90623,343.89971 565.89254,345.28834 C 565.36589,345.59851 564.91346,346.07847 564.92705,346.72734 C 564.67832,348.43672 562.81048,349.47333 562.85155,351.26576 C 562.95449,352.25977 564.27614,352.55357 565.05927,352.1513 C 566.63946,351.16992 567.10652,349.21813 567.90059,347.65365 C 569.6755,344.05044 571.59545,340.52534 573.50268,336.98636 C 576.69387,336.30599 579.87346,335.54857 583.02228,334.68026 C 583.61738,337.56829 584.03757,340.50295 584.45207,343.40963 C 584.76279,344.72187 586.08946,345.76971 587.45308,345.60504 C 588.18548,345.50385 588.46101,344.71475 588.39397,344.06149 C 588.37939,341.79442 587.47073,339.66246 587.10157,337.44337 C 586.51146,334.78799 586.54253,332.04766 585.86033,329.40696 C 585.50918,327.90645 585.29852,326.37734 585.2669,324.84395 C 584.84117,321.81971 584.04431,318.844 583.10837,315.94854 C 582.90309,315.25426 582.28445,314.79748 581.55253,314.82931 z M 647.39641,315.26286 C 648.70874,315.2516 649.59595,316.42751 650.51723,317.19472 C 650.9462,317.6181 651.77074,318.17872 651.39366,318.8819 C 650.68932,320.07736 649.13523,320.2336 647.9448,320.67947 C 644.70217,321.64382 641.40066,322.58963 638.0244,322.86993 C 637.87129,322.71375 638.19369,322.39382 638.21812,322.20269 C 639.07326,320.50592 640.44282,319.13624 641.64653,317.68581 C 642.61816,316.55335 643.90773,315.64699 645.42984,315.48411 C 646.07942,315.3506 646.73245,315.28093 647.39641,315.26286 z M 457.04135,316.1484 C 455.77443,316.3432 454.85222,317.42266 454.57843,318.63899 C 453.66466,321.55682 453.18789,324.57494 452.50601,327.55286 C 451.66838,331.59426 450.69797,335.62427 450.16301,339.71679 C 450.17342,340.52807 450.9284,341.16438 451.73116,341.08508 C 452.78649,341.10906 453.76045,340.31288 453.90197,339.25557 C 455.47334,333.99925 456.42882,328.58102 457.52309,323.20664 C 457.83061,321.30188 458.22876,319.3825 458.15135,317.44597 C 458.1067,316.84754 457.73898,316.10903 457.04135,316.1484 z M 470.28453,317.60279 C 469.08222,317.83745 468.68645,319.1946 468.46818,320.23494 C 467.09746,325.91045 466.16237,331.68293 464.62916,337.32096 C 464.18079,339.13874 463.64914,340.98791 463.69215,342.87154 C 463.82058,343.50989 464.29002,344.24813 464.98357,344.29517 C 465.59532,344.13267 465.6472,343.36346 465.96136,342.90844 C 467.4964,339.48686 468.86413,335.92059 471.27998,332.99313 C 474.03072,329.36358 476.92351,325.72242 480.73272,323.18356 C 481.03362,322.96446 481.49394,322.99437 481.5783,323.41109 C 482.30512,324.8153 481.60666,326.44131 481.39216,327.89348 C 480.35091,332.83066 478.69238,337.64318 477.03066,342.37957 C 476.81886,342.96104 476.78258,343.91535 477.55337,344.07071 C 478.42637,344.25758 479.33979,343.77289 479.69651,342.95763 C 481.54357,338.89662 482.40459,334.46212 483.70299,330.20949 C 484.35655,327.68138 485.39417,325.08386 484.80992,322.43638 C 484.53813,321.356 484.2083,320.05528 483.14337,319.49687 C 481.93947,318.91624 480.68813,319.66665 479.68001,320.29197 C 477.47372,321.70165 475.56577,323.53464 473.71909,325.37589 C 471.85457,327.37047 470.50454,329.75692 468.93162,331.98058 C 469.67619,327.63031 470.64044,323.31255 471.32382,318.9557 C 471.40151,318.31459 471.03028,317.52947 470.28453,317.60279 z M 623.61587,318.00251 C 624.46099,317.95662 624.76451,318.88436 625.00261,319.52454 C 625.62166,321.66789 624.74926,323.87021 624.05865,325.88939 C 622.84466,328.96266 621.09136,331.87405 618.76998,334.24056 C 617.99778,334.95742 616.98778,335.83125 615.85198,335.65189 C 615.15064,335.36372 614.44638,334.93951 613.65657,335.12918 C 613.2721,335.11644 613.37549,334.51352 613.22303,334.26208 C 612.81228,332.22803 612.77335,330.13159 612.58945,328.06348 C 612.46256,326.02097 612.39359,323.97509 612.35901,321.92904 C 614.88918,320.47969 617.5255,319.18792 620.39587,318.5507 C 621.45101,318.27022 622.52311,318.05831 623.61587,318.00251 z M 580.89451,321.53546 C 581.63773,323.87476 581.84799,326.34934 582.19209,328.76126 C 582.23793,329.59265 582.41685,330.52187 582.04757,331.29182 C 581.4575,331.86016 580.53873,331.87287 579.79988,332.17121 C 578.28302,332.58608 576.7495,332.88339 575.21227,333.21357 C 576.87789,329.19982 578.66871,325.23788 580.87914,321.49549 L 580.89451,321.53546 z M 495.45489,322.46405 C 494.34613,322.62977 493.98083,323.87338 493.48745,324.71225 C 490.77865,330.36244 488.77485,336.37038 487.72091,342.55395 C 487.51783,343.93083 487.47365,345.68777 488.71799,346.5982 C 490.06776,347.59584 491.90994,347.58168 493.42552,346.99485 C 495.70044,346.17318 497.78877,344.86598 499.73141,343.4284 C 501.02469,342.48365 502.14632,341.3126 503.48014,340.42707 C 503.54051,342.37593 503.26892,344.31798 503.228,346.26612 C 503.23621,347.09084 503.1253,348.02254 503.54778,348.75979 C 504.11091,349.40745 505.14357,349.21307 505.79854,348.83974 C 506.65923,348.00357 506.5304,346.66573 506.70662,345.56499 C 506.97791,342.11627 507.3602,338.58777 508.93772,335.45662 C 510.32303,332.30794 512.31429,329.44643 513.59932,326.26144 C 513.81541,325.35796 512.87,324.56888 512.00657,324.78553 C 510.72087,324.94171 510.1755,326.29605 509.48676,327.20783 C 507.93439,329.6523 506.49624,332.20361 504.57425,334.39689 C 501.81719,337.71867 498.74524,340.88381 494.96907,343.07755 C 493.88192,343.6566 492.70756,344.28686 491.4515,344.36589 C 490.9178,344.33173 490.77391,343.73578 490.89364,343.29291 C 491.06326,340.83436 491.95673,338.48943 492.59781,336.1227 C 493.7115,332.40514 494.91171,328.71356 496.57105,325.20063 C 496.95821,324.33925 496.92084,323.11052 496.01451,322.59627 C 495.84694,322.4983 495.6503,322.44612 495.45489,322.46405 z M 519.23237,327.23923 C 518.12913,327.45567 517.29457,328.45686 516.99391,329.48691 C 516.89975,330.65342 517.50159,331.72607 517.87416,332.7896 C 518.86115,334.81952 520.31071,336.61016 521.33757,338.62186 C 521.62547,339.13457 521.91236,339.64783 522.19648,340.16263 C 519.40919,342.81679 516.38699,345.24988 513.85761,348.15098 C 513.45103,348.66958 513.44455,349.46463 513.9929,349.89439 C 514.77786,350.55577 515.85414,349.98209 516.52716,349.43309 C 519.22379,347.54007 521.34502,344.91291 524.05367,343.06833 C 525.79237,345.10089 527.37518,347.30584 528.78887,349.59306 C 529.44251,350.46273 531.01929,350.73017 531.65459,349.71298 C 532.27599,348.8043 531.97305,347.60462 531.3594,346.77654 C 530.03922,344.52766 528.2247,342.58733 527.01778,340.2764 C 527.98776,339.02269 529.30534,338.07088 530.4185,336.94024 C 531.44606,336.0149 532.26506,334.89749 533.12741,333.83161 C 534.04961,332.87967 535.43206,332.31071 535.97775,331.03661 C 536.27904,330.10379 535.35537,328.86344 534.34504,329.2686 C 532.73567,329.85201 531.77678,331.37908 530.50456,332.44635 C 528.74674,334.14162 527.06876,335.91596 525.1729,337.44143 C 523.71943,335.63358 522.75829,333.48603 521.64327,331.47453 C 521.10409,330.45238 520.61042,329.39322 520.46536,328.24776 C 520.30497,327.69802 519.85867,327.17188 519.23237,327.23923 z " id="text2302"/>
  </g>
</svg>